<?xml version="1.0" encoding="UTF-8" standalone="no"?>
<!-- Created with Inkscape (http://www.inkscape.org/) -->

<svg
   width="210mm"
   height="297mm"
   viewBox="0 0 210 297"
   version="1.1"
   id="svg1"
   sodipodi:docname="LOGO1.svg"
   inkscape:version="1.3.2 (091e20e, 2023-11-25, custom)"
   xmlns:inkscape="http://www.inkscape.org/namespaces/inkscape"
   xmlns:sodipodi="http://sodipodi.sourceforge.net/DTD/sodipodi-0.dtd"
   xmlns="http://www.w3.org/2000/svg"
   xmlns:svg="http://www.w3.org/2000/svg">
  <sodipodi:namedview
     id="namedview1"
     pagecolor="#ffffff"
     bordercolor="#000000"
     borderopacity="0.25"
     inkscape:showpageshadow="2"
     inkscape:pageopacity="0.0"
     inkscape:pagecheckerboard="0"
     inkscape:deskcolor="#d1d1d1"
     inkscape:document-units="mm"
     inkscape:zoom="0.57848045"
     inkscape:cx="255.8427"
     inkscape:cy="562.68107"
     inkscape:window-width="1920"
     inkscape:window-height="1046"
     inkscape:window-x="-11"
     inkscape:window-y="-11"
     inkscape:window-maximized="1"
     inkscape:current-layer="layer1" />
  <defs
     id="defs1">
    <rect
       x="179.93534"
       y="463.67952"
       width="318.34714"
       height="105.19297"
       id="rect2" />
    <rect
       x="70.590017"
       y="539.80601"
       width="290.66478"
       height="78.894725"
       id="rect1" />
  </defs>
  <g
     inkscape:label="Layer 1"
     inkscape:groupmode="layer"
     id="layer1">
    <text
       xml:space="preserve"
       transform="scale(0.26458333)"
       id="text1"
       style="white-space:pre;shape-inside:url(#rect1);display:inline;fill:#000000" />
    <text
       xml:space="preserve"
       transform="scale(0.26458333)"
       id="text2"
       style="font-style:normal;font-variant:normal;font-weight:normal;font-stretch:normal;font-family:Rockwell;-inkscape-font-specification:Rockwell;white-space:pre;shape-inside:url(#rect2);display:inline;fill:#000000" />
    <path
       id="text3"
       style="font-size:0.705556px;line-height:0.1;font-family:Rockwell;-inkscape-font-specification:Rockwell;text-align:end;baseline-shift:baseline;text-anchor:end;white-space:pre;inline-size:13.6651;fill:#000000;fill-opacity:1;stroke-width:11.6969"
       d="m 15.1707,139.30034 c -2.180239,0 -3.953594,1.52377 -5.3109923,4.59163 -1.3545513,3.0614 -2.0398694,6.88237 -2.0426913,11.42525 0,2.79715 0.2982249,5.51888 0.8808926,8.12068 0.582923,2.58854 1.445837,4.58917 2.604389,6.04773 1.165574,1.44465 2.445212,2.18398 3.830097,2.18398 2.173327,0 3.969388,-1.53952 5.374752,-4.5926 1.412315,-3.06721 2.119309,-6.94219 2.119309,-11.64836 0,-4.61503 -0.696155,-8.4689 -2.081042,-11.53668 -1.384848,-3.06786 -3.174041,-4.5916 -5.374714,-4.59163 z m 39.972619,0 c -2.221332,0 -3.98972,1.51315 -5.285388,4.56321 -1.295743,3.05321 -1.940604,6.89321 -1.940604,11.5082 0,4.40504 0.634022,8.2205 1.902265,11.45479 1.268296,3.21539 3.198662,4.84302 5.783327,4.84302 2.159495,0 3.89246,-1.33099 5.208811,-3.97418 1.316403,-2.64707 1.978856,-6.1791 1.978856,-10.58592 0,-0.32461 -0.0033,-0.67117 -0.0099,-1.06434 h -5.209684 v 3.91909 h 2.591708 c -0.150362,2.25739 -0.679005,4.0636 -1.570372,5.4614 -0.891189,1.38509 -1.900361,2.07316 -3.038469,2.07316 -1.453441,0 -2.705396,-1.08111 -3.740662,-3.27698 -1.028442,-2.19614 -1.531985,-5.15927 -1.531985,-8.90454 0,-3.26068 0.448255,-6.0553 1.353269,-8.3725 0.904988,-2.31284 2.139214,-3.47221 3.702331,-3.47221 1.124419,0 2.11682,0.66349 2.98746,2.01616 0.877352,1.33909 1.495506,2.89329 1.838428,4.62094 h 1.812858 v -10.30556 h -1.813037 v 3.4734 c -1.350677,-2.66407 -3.022399,-3.97716 -5.017414,-3.97716 z m 46.879191,0 c -2.179866,0 -3.953397,1.52377 -5.310842,4.59163 -1.354378,3.0614 -2.027671,6.88237 -2.02991,11.42525 0,2.79715 0.285392,5.51888 0.868252,8.12068 0.583486,2.58854 1.459068,4.58917 2.617192,6.04773 1.165782,1.44465 2.432408,2.18398 3.817478,2.18398 2.17344,0 3.96961,-1.53952 5.37461,-4.5926 1.41265,-3.06721 2.11919,-6.94219 2.11919,-11.64836 0,-4.61503 -0.69582,-8.4689 -2.0808,-11.53668 -1.38526,-3.06786 -3.17367,-4.5916 -5.37517,-4.59163 z m 16.73741,0 c -2.22189,0 -3.98955,1.51315 -5.28555,4.56321 -1.29559,3.05321 -1.94053,6.89321 -1.94053,11.5082 0,4.40504 0.63439,8.2205 1.90216,11.45479 1.26858,3.21539 3.19935,4.8151 5.78338,4.8151 2.15874,0 3.89147,-1.30307 5.2084,-3.94626 1.31627,-2.64707 1.97947,-6.17911 1.97947,-10.58592 0,-0.32461 -0.002,-0.70041 -0.007,-1.09276 h -5.20959 l 0.007,3.92043 h 2.57857 c -0.15131,2.25658 -0.67883,4.09076 -1.57039,5.48848 -0.89021,1.38506 -1.89987,2.07318 -3.03786,2.07318 -1.45429,0 -2.70598,-1.08108 -3.74114,-3.27698 -1.02904,-2.19616 -1.53164,-5.15929 -1.53164,-8.90454 0,-3.26052 0.44779,-6.0553 1.35323,-8.37248 0.90566,-2.31285 2.14018,-3.4722 3.70196,-3.4722 1.12319,0 2.1158,0.66347 2.98759,2.01614 0.8778,1.33906 1.49621,2.89326 1.83827,4.62101 h 1.81298 v -10.33292 h -1.81298 v 3.50072 c -1.35041,-2.66405 -3.02225,-3.97717 -5.0171,-3.97717 z m 13.53287,0 c -1.20729,0 -2.21129,0.77235 -3.01323,2.35012 -0.79572,1.56415 -1.19981,3.66946 -1.19981,6.30098 0,1.69928 0.18326,3.17772 0.54909,4.42628 0.36998,1.23468 0.86369,2.17844 1.48062,2.85498 0.6167,0.664 1.56575,1.37827 2.8471,2.12768 1.10224,0.64577 1.84872,1.29677 2.24685,1.96021 0.39776,0.6452 0.59991,1.73139 0.59991,3.22046 0,1.53319 -0.23755,2.74905 -0.72705,3.69748 -0.48616,0.94591 -1.08145,1.42828 -1.78757,1.42828 -1.38451,0 -2.51301,-1.71273 -3.37087,-5.1258 v -2.7722 h -1.78713 v 11.39657 h 1.78713 v -2.57658 c 1.04186,2.06066 2.22022,3.08087 3.52395,3.08087 1.26728,0 2.33358,-0.88615 3.19137,-2.63199 0.8639,-1.74594 1.28945,-3.93267 1.28945,-6.6071 0,-1.89462 -0.2,-3.58436 -0.61293,-5.04147 -0.41163,-1.45888 -0.91134,-2.49261 -1.4809,-3.10917 -0.56896,-0.63263 -1.48304,-1.32317 -2.74498,-2.04308 -0.96613,-0.53141 -1.61186,-0.95432 -1.93995,-1.25979 -0.32852,-0.29732 -0.59119,-0.76749 -0.80458,-1.40036 -0.21073,-0.64695 -0.31924,-1.36956 -0.31924,-2.21229 0,-1.10059 0.2069,-2.04658 0.62583,-2.82839 0.41808,-0.79907 1.01789,-1.20342 1.79978,-1.20342 1.28862,0 2.29122,1.21613 3.02569,3.63875 v 2.18548 h 1.74922 v -9.52106 h -1.74922 v 2.09981 c -0.98117,-1.62338 -2.03433,-2.4354 -3.17855,-2.4354 z m 11.18341,0 c -1.20678,0 -2.21085,0.77235 -3.0128,2.35012 -0.79601,1.56415 -1.19985,3.66946 -1.19985,6.30098 0,1.69928 0.18362,3.17772 0.5492,4.42628 0.37012,1.23468 0.86385,2.17844 1.48077,2.85498 0.61653,0.664 1.56471,1.37827 2.8467,2.12768 1.10236,0.64577 1.8488,1.29677 2.24687,1.96021 0.39774,0.6452 0.59996,1.73139 0.59996,3.22046 0,1.53319 -0.23771,2.74905 -0.72786,3.69748 -0.48693,0.94591 -1.09297,1.42828 -1.79993,1.42828 -1.3842,0 -2.49971,-1.71273 -3.3576,-5.1258 v -2.7722 h -1.78733 v 11.39657 h 1.80003 v -2.57658 c 1.04109,2.06066 2.20729,3.08087 3.51092,3.08087 1.26754,0 2.33413,-0.88615 3.19143,-2.63199 0.86403,-1.74594 1.28969,-3.93267 1.28969,-6.6071 0,-1.89462 -0.19795,-3.58436 -0.61289,-5.04147 -0.41172,-1.45888 -0.89921,-2.49261 -1.46804,-3.10917 -0.56912,-0.63263 -1.49606,-1.32317 -2.75787,-2.04308 -0.96721,-0.53141 -1.61186,-0.95432 -1.93955,-1.25979 -0.32876,-0.29732 -0.59165,-0.76749 -0.80507,-1.40036 -0.21092,-0.64695 -0.31882,-1.36956 -0.31882,-2.21229 0,-1.10059 0.20564,-2.04658 0.62539,-2.82839 0.41837,-0.79907 1.01802,-1.20342 1.80003,-1.20342 1.28852,0 2.29136,1.21613 3.0254,3.63875 v 2.18548 h 1.74936 v -9.52106 h -1.74936 v 2.09981 c -0.98071,-1.62338 -2.03419,-2.4354 -3.17875,-2.4354 z m 26.42734,0 c -2.18094,0 -3.95379,1.52377 -5.31069,4.59163 -1.35471,3.0614 -2.02785,6.88237 -2.03023,11.42525 0,2.79715 0.28497,5.51888 0.86795,8.12068 0.58267,2.58854 1.45929,4.58917 2.61738,6.04773 1.16503,1.44465 2.44516,2.18398 3.82958,2.18398 2.17443,0 3.95783,-1.53952 5.36219,-4.5926 1.41347,-3.06721 2.11941,-6.94219 2.11941,-11.64836 0,-4.61503 -0.69592,-8.4689 -2.08101,-11.53668 -1.38491,-3.06786 -3.17401,-4.5916 -5.37458,-4.59163 z m -145.859963,0.47432 v 3.94672 h 1.800059 v 23.52159 h -1.800059 v 3.91998 h 5.796052 v -3.92003 h -1.825615 v -10.30345 h 4.608788 v -3.94927 h -4.608788 v -9.26917 h 5.349247 v 5.51706 h 1.774618 v -9.46419 z m 11.617688,0 v 3.94672 h 1.812875 v 23.52159 h -1.812875 v 3.91998 h 5.79607 v -3.92003 h -1.825603 v -10.30345 h 4.621521 v -3.94924 h -4.621521 v -9.26893 h 5.362013 v 5.51687 h 1.761791 v -9.46351 z m 27.908007,0 v 3.94672 h 1.74917 l 4.251253,13.16091 v 10.36068 h -1.914994 v 3.91998 h 6.038564 v -3.92003 h -1.95328 V 156.8819 l 3.970472,-13.16094 h 1.889655 v -3.94645 h -5.706787 v 3.94679 h 1.79994 l -2.885172,9.66191 -3.153392,-9.66193 h 1.800219 v -3.9468 z m 19.380035,0 v 3.94672 h 1.851369 v 23.52159 h -1.851369 v 3.91998 h 10.493774 v -14.5886 h -2.016808 v 10.66867 h -4.378845 v -23.52159 h 1.761783 v -3.94672 z m 95.711863,0 v 3.94672 h 1.96631 v 23.52159 l -1.96631,0.0158 v 3.92217 h 5.96222 v -3.92169 h -1.83834 v -10.75182 h 2.01683 l 3.26859,14.67435 h 3.09001 v -3.92161 h -1.74967 l -2.52766,-11.4236 c 1.96801,-1.06889 2.94913,-3.66289 2.94913,-7.81236 0,-1.98584 -0.23492,-3.66234 -0.70202,-4.98509 -0.46772,-1.35236 -1.04955,-2.21007 -1.76199,-2.60361 -0.71249,-0.4303 -1.68419,-0.67143 -2.89789,-0.67143 z m 13.03494,0 v 3.94672 h 1.85097 v 23.52159 h -1.85097 v 3.91998 h 11.88594 v -9.63151 h -1.76219 v 5.71158 h -6.11529 v -10.27563 h 5.32416 v -3.92006 h -5.32416 v -9.32563 h 6.11529 v 5.51665 h 1.76219 v -9.46356 z m -41.69582,0.0158 v 11.92877 h 1.77451 v -8.00796 h 2.9482 v 23.52049 h -1.82501 v 3.92059 h 5.84746 v -3.92069 h -1.86417 v -23.52043 h 2.94945 v 8.00861 h 1.76148 v -11.92859 z m -134.855168,3.66885 c 1.467101,0 2.684541,1.15879 3.651286,3.47198 0.97352,2.29937 1.455401,5.11824 1.455401,8.45611 0,3.30774 -0.476865,6.14868 -1.429816,8.54139 -0.953085,2.37349 -2.170571,3.58403 -3.651292,3.58403 -1.494483,0 -2.694239,-1.16919 -3.612988,-3.50071 -0.918644,-2.32993 -1.378867,-5.23691 -1.378867,-8.68006 0,-3.38431 0.466042,-6.18628 1.391583,-8.45657 0.925548,-2.26964 2.114403,-3.41607 3.574693,-3.41617 z m 86.852468,0 c 1.46649,0 2.68373,1.15879 3.6507,3.47198 0.97355,2.29937 1.46817,5.11824 1.46817,8.45611 0,3.30774 -0.47628,6.14868 -1.42984,8.54139 -0.95298,2.37349 -2.1708,3.58403 -3.65131,3.58403 -1.49388,0 -2.705993,-1.16919 -3.625592,-3.50071 -0.918828,-2.32993 -1.378775,-5.23691 -1.378775,-8.68006 0,-3.38431 0.465863,-6.18628 1.391638,-8.45657 0.925173,-2.26964 2.113639,-3.41607 3.575009,-3.41617 z m 67.8926,0 c 1.46705,0 2.68473,1.15879 3.65159,3.47198 0.97332,2.29937 1.45597,5.11824 1.45597,8.45611 0,3.30774 -0.47739,6.14868 -1.4301,8.54139 -0.95363,2.37349 -2.17079,3.58403 -3.65148,3.58403 -1.49409,0 -2.70678,-1.16919 -3.62582,-3.50071 -0.91949,-2.32993 -1.37907,-5.23691 -1.37907,-8.68006 h 0.007 c 0,-3.38431 0.45384,-6.18628 1.37865,-8.45657 0.92563,-2.26964 2.12738,-3.41607 3.58773,-3.41607 z m 12.90761,0.27337 h 1.82561 c 0.75421,0 1.30825,0.10203 1.67232,0.27341 0.37014,0.16926 0.68522,0.6098 0.93233,1.31621 0.25212,0.70783 0.36998,1.58265 0.36998,2.60367 0,1.20538 -0.11995,2.16532 -0.36998,2.88402 -0.24526,0.68497 -0.55524,1.16665 -0.94548,1.4289 -0.38357,0.21802 -0.98348,0.30154 -1.79966,0.30154 h -1.68512 z" />
  </g>
</svg>
